# xmcd
#
# Track frame offsets:
#	150
#	15987
#	26811
#	45636
#	56700
#	70598
#	89573
#	104942
#	120936
#	133377
#	144939
#	161202
#
# Disc length: 2338 seconds
#
# Revision: 0
# Processed by: cddbd v1.5.2PL0 Copyright (c) Steve Scherf et al.
# Submitted via: audiograbber 1.83.01
#
DISCID=aa09200c
DTITLE=De Bläck Fööss - Lück Wie Ich Un Du
DYEAR=1975
DGENRE=Folk-Rock
TTITLE0=Lück Wie Ich Un Du
TTITLE1=Pänz, Pänz, Pänz
TTITLE2=Die Drei Von D'r Linie "2"
TTITLE3=Ib'n, Dib'n, Dab
TTITLE4=Dr. Pillemann
TTITLE5=D'r Büb Us "Moni's Bierbar"
TTITLE6=Wenn De Sonn Schön Schingk
TTITLE7=Dä Kleine Laden
TTITLE8=Et Fossball-Leed
TTITLE9=Verspätung
TTITLE10=En D'r Kayjass Nummer Null
TTITLE11=Einmol Em Johr
EXTD=
EXTT0=
EXTT1=
EXTT2=
EXTT3=
EXTT4=
EXTT5=
EXTT6=
EXTT7=
EXTT8=
EXTT9=
EXTT10=
EXTT11=
PLAYORDER=
